<svg xmlns="http://www.w3.org/2000/svg" viewBox="0 0 15 15"><rect width="15" height="15" rx="2.6" fill="#fff"/><rect x="2" y="6" width="1" height="1" rx=".1" fill="#099268"/><rect x="4" y="4" width="1" height="3" rx=".1" fill="#099268"/><rect x="6" y="2" width="1" height="5" rx=".1" fill="#099268"/><rect x="8" y="2" width="1" height="1" rx=".1" fill="#ba001b"/><rect x="8" y="4" width="3" height="1" rx=".1" fill="#ba001b"/><rect x="8" y="6" width="5" height="1" rx=".1" fill="#ba001b"/><rect x="2" y="8" width="5" height="1" rx=".1" fill="#fbad0b"/><rect x="4" y="10" width="3" height="1" rx=".1" fill="#fbad0b"/><rect x="6" y="12" width="1" height="1" rx=".1" fill="#fbad0b"/><rect x="8" y="8" width="1" height="5" rx=".1" fill="#0756e6"/><rect x="10" y="8" width="1" height="3" rx=".1" fill="#0756e6"/><rect x="12" y="8" width="1" height="1" rx=".1" fill="#0756e6"/></svg>
